<mxfile host="Electron" agent="Mozilla/5.0 (Windows NT 10.0; Win64; x64) AppleWebKit/537.36 (KHTML, like Gecko) draw.io/24.7.17 Chrome/128.0.6613.36 Electron/32.0.1 Safari/537.36" version="24.7.17">
  <diagram name="Page-1" id="c7558073-3199-34d8-9f00-42111426c3f3">
    <mxGraphModel dx="2128" dy="758" grid="1" gridSize="10" guides="1" tooltips="1" connect="1" arrows="1" fold="1" page="1" pageScale="1" pageWidth="826" pageHeight="1169" background="none" math="0" shadow="0">
      <root>
        <mxCell id="0" />
        <mxCell id="1" parent="0" />
        <mxCell id="KYCBICbOke3TSxatJTsc-107" style="edgeStyle=orthogonalEdgeStyle;rounded=0;orthogonalLoop=1;jettySize=auto;html=1;exitX=0.5;exitY=1;exitDx=0;exitDy=0;fillColor=#f0a30a;strokeColor=#BD7000;strokeWidth=2;" parent="1" source="KYCBICbOke3TSxatJTsc-96" target="KYCBICbOke3TSxatJTsc-97" edge="1">
          <mxGeometry relative="1" as="geometry" />
        </mxCell>
        <mxCell id="KYCBICbOke3TSxatJTsc-96" value="&lt;p style=&quot;margin: 0px; margin-top: 4px; text-align: center; text-decoration: underline;&quot;&gt;初始化&lt;/p&gt;&lt;hr&gt;&lt;p style=&quot;margin: 0px; margin-left: 8px;&quot;&gt;GPIO、SYS、&lt;/p&gt;&lt;p style=&quot;margin: 0px; margin-left: 8px;&quot;&gt;串口&lt;/p&gt;" style="verticalAlign=middle;align=center;overflow=fill;fontSize=12;fontFamily=Times New Roman;html=1;rounded=1;fontStyle=1;strokeWidth=2;fillColor=#E6FFCC" parent="1" vertex="1">
          <mxGeometry x="367.5" y="50" width="104" height="70" as="geometry" />
        </mxCell>
        <mxCell id="KYCBICbOke3TSxatJTsc-110" style="edgeStyle=orthogonalEdgeStyle;shape=connector;rounded=0;orthogonalLoop=1;jettySize=auto;html=1;exitX=0.5;exitY=1;exitDx=0;exitDy=0;entryX=0.5;entryY=0;entryDx=0;entryDy=0;strokeColor=#BD7000;strokeWidth=2;align=center;verticalAlign=middle;fontFamily=Helvetica;fontSize=11;fontColor=default;labelBackgroundColor=default;endArrow=classic;fillColor=#f0a30a;" parent="1" source="KYCBICbOke3TSxatJTsc-97" target="KYCBICbOke3TSxatJTsc-99" edge="1">
          <mxGeometry relative="1" as="geometry">
            <Array as="points">
              <mxPoint x="420" y="180" />
              <mxPoint x="420" y="180" />
            </Array>
          </mxGeometry>
        </mxCell>
        <mxCell id="KYCBICbOke3TSxatJTsc-97" value="FreeRTOS初始化" style="whiteSpace=wrap;align=center;verticalAlign=middle;fontStyle=1;strokeWidth=2;fillColor=#FFFFCC;fontFamily=Times New Roman;" parent="1" vertex="1">
          <mxGeometry x="364" y="140" width="111" height="50" as="geometry" />
        </mxCell>
        <mxCell id="KYCBICbOke3TSxatJTsc-124" style="edgeStyle=orthogonalEdgeStyle;shape=connector;rounded=1;orthogonalLoop=1;jettySize=auto;html=1;exitX=0.5;exitY=1;exitDx=0;exitDy=0;entryX=0.5;entryY=0;entryDx=0;entryDy=0;strokeColor=#BD7000;strokeWidth=2;align=center;verticalAlign=middle;fontFamily=Helvetica;fontSize=11;fontColor=default;labelBackgroundColor=default;endArrow=classic;fillColor=#f0a30a;curved=0;" parent="1" source="KYCBICbOke3TSxatJTsc-99" target="KYCBICbOke3TSxatJTsc-111" edge="1">
          <mxGeometry relative="1" as="geometry" />
        </mxCell>
        <mxCell id="KYCBICbOke3TSxatJTsc-125" style="edgeStyle=orthogonalEdgeStyle;shape=connector;rounded=1;orthogonalLoop=1;jettySize=auto;html=1;exitX=0.5;exitY=1;exitDx=0;exitDy=0;entryX=0.5;entryY=0;entryDx=0;entryDy=0;strokeColor=#BD7000;strokeWidth=2;align=center;verticalAlign=middle;fontFamily=Helvetica;fontSize=11;fontColor=default;labelBackgroundColor=default;endArrow=classic;fillColor=#f0a30a;curved=0;" parent="1" source="KYCBICbOke3TSxatJTsc-99" target="KYCBICbOke3TSxatJTsc-117" edge="1">
          <mxGeometry relative="1" as="geometry" />
        </mxCell>
        <mxCell id="KYCBICbOke3TSxatJTsc-126" style="edgeStyle=elbowEdgeStyle;shape=connector;rounded=1;orthogonalLoop=1;jettySize=auto;html=1;exitX=0.5;exitY=1;exitDx=0;exitDy=0;entryX=0.5;entryY=0;entryDx=0;entryDy=0;strokeColor=#BD7000;strokeWidth=2;align=center;verticalAlign=middle;fontFamily=Helvetica;fontSize=11;fontColor=default;labelBackgroundColor=default;endArrow=classic;fillColor=#f0a30a;elbow=vertical;curved=0;" parent="1" source="KYCBICbOke3TSxatJTsc-99" target="KYCBICbOke3TSxatJTsc-120" edge="1">
          <mxGeometry relative="1" as="geometry" />
        </mxCell>
        <mxCell id="KYCBICbOke3TSxatJTsc-99" value="开始任务调度" style="whiteSpace=wrap;align=center;verticalAlign=middle;fontStyle=1;strokeWidth=2;fillColor=#FFFFCC;fontFamily=Times New Roman;" parent="1" vertex="1">
          <mxGeometry x="364" y="210" width="111" height="50" as="geometry" />
        </mxCell>
        <mxCell id="KYCBICbOke3TSxatJTsc-105" value="" style="swimlane;startSize=0;fillColor=none;dashed=1;strokeWidth=2;fontFamily=Times New Roman;" parent="1" vertex="1">
          <mxGeometry x="80" y="310" width="140" height="240" as="geometry">
            <mxRectangle x="80" y="310" width="50" height="40" as="alternateBounds" />
          </mxGeometry>
        </mxCell>
        <mxCell id="SlOrQcs6TzMa83nHez-D-3" style="edgeStyle=orthogonalEdgeStyle;shape=connector;rounded=0;orthogonalLoop=1;jettySize=auto;html=1;exitX=0.5;exitY=1;exitDx=0;exitDy=0;entryX=0.5;entryY=0;entryDx=0;entryDy=0;strokeColor=#BD7000;strokeWidth=2;align=center;verticalAlign=middle;fontFamily=Helvetica;fontSize=11;fontColor=default;labelBackgroundColor=default;endArrow=classic;fillColor=#f0a30a;" parent="KYCBICbOke3TSxatJTsc-105" source="KYCBICbOke3TSxatJTsc-100" target="SlOrQcs6TzMa83nHez-D-1" edge="1">
          <mxGeometry relative="1" as="geometry">
            <Array as="points">
              <mxPoint x="70" y="160" />
              <mxPoint x="70" y="160" />
            </Array>
          </mxGeometry>
        </mxCell>
        <mxCell id="KYCBICbOke3TSxatJTsc-100" value="更新时间读数&#xa;屏幕初始化" style="whiteSpace=wrap;align=center;verticalAlign=middle;fontStyle=1;strokeWidth=2;fillColor=#FFFFCC;fontFamily=Times New Roman;" parent="KYCBICbOke3TSxatJTsc-105" vertex="1">
          <mxGeometry x="14.5" y="100" width="111" height="50" as="geometry" />
        </mxCell>
        <mxCell id="KYCBICbOke3TSxatJTsc-106" value="task_init=5" style="text;html=1;align=center;verticalAlign=middle;resizable=0;points=[];autosize=1;strokeColor=none;fillColor=none;" parent="KYCBICbOke3TSxatJTsc-105" vertex="1">
          <mxGeometry x="60" width="80" height="30" as="geometry" />
        </mxCell>
        <mxCell id="SlOrQcs6TzMa83nHez-D-1" value="task_init自杀" style="whiteSpace=wrap;align=center;verticalAlign=middle;fontStyle=1;strokeWidth=2;fillColor=#FFFFCC;fontFamily=Times New Roman;" parent="KYCBICbOke3TSxatJTsc-105" vertex="1">
          <mxGeometry x="14.5" y="180" width="111" height="50" as="geometry" />
        </mxCell>
        <mxCell id="FDbFjoVgWYvQYMH4IWsY-4" style="edgeStyle=orthogonalEdgeStyle;shape=connector;rounded=0;orthogonalLoop=1;jettySize=auto;html=1;exitX=0.5;exitY=1;exitDx=0;exitDy=0;entryX=0.5;entryY=0;entryDx=0;entryDy=0;strokeColor=#BD7000;strokeWidth=2;align=center;verticalAlign=middle;fontFamily=Helvetica;fontSize=11;fontColor=default;labelBackgroundColor=default;endArrow=classic;fillColor=#f0a30a;" parent="KYCBICbOke3TSxatJTsc-105" source="FDbFjoVgWYvQYMH4IWsY-1" target="KYCBICbOke3TSxatJTsc-100" edge="1">
          <mxGeometry relative="1" as="geometry" />
        </mxCell>
        <mxCell id="FDbFjoVgWYvQYMH4IWsY-1" value="开启串口接收中断" style="whiteSpace=wrap;align=center;verticalAlign=middle;fontStyle=1;strokeWidth=2;fillColor=#FFFFCC;fontFamily=Times New Roman;" parent="KYCBICbOke3TSxatJTsc-105" vertex="1">
          <mxGeometry x="14.5" y="30" width="111" height="50" as="geometry" />
        </mxCell>
        <mxCell id="KYCBICbOke3TSxatJTsc-111" value="" style="swimlane;startSize=0;fillColor=none;dashed=1;strokeWidth=2;fontFamily=Times New Roman;" parent="1" vertex="1">
          <mxGeometry x="260" y="310" width="150" height="240" as="geometry">
            <mxRectangle x="260" y="310" width="50" height="40" as="alternateBounds" />
          </mxGeometry>
        </mxCell>
        <mxCell id="KYCBICbOke3TSxatJTsc-112" value="关键值打印显示&#xa;LED灯闪烁显示" style="whiteSpace=wrap;align=center;verticalAlign=middle;fontStyle=1;strokeWidth=2;fillColor=#FFFFCC;fontFamily=Times New Roman;" parent="KYCBICbOke3TSxatJTsc-111" vertex="1">
          <mxGeometry x="19.5" y="140" width="111" height="50" as="geometry" />
        </mxCell>
        <mxCell id="KYCBICbOke3TSxatJTsc-113" value="task_show=4" style="text;html=1;align=center;verticalAlign=middle;resizable=0;points=[];autosize=1;strokeColor=none;fillColor=none;" parent="KYCBICbOke3TSxatJTsc-111" vertex="1">
          <mxGeometry x="60" width="90" height="30" as="geometry" />
        </mxCell>
        <mxCell id="SlOrQcs6TzMa83nHez-D-13" style="edgeStyle=orthogonalEdgeStyle;shape=connector;curved=0;rounded=1;orthogonalLoop=1;jettySize=auto;html=1;exitX=0.5;exitY=1;exitDx=0;exitDy=0;entryX=0.5;entryY=0;entryDx=0;entryDy=0;strokeColor=#BD7000;strokeWidth=2;align=center;verticalAlign=middle;fontFamily=Helvetica;fontSize=11;fontColor=default;labelBackgroundColor=default;endArrow=classic;fillColor=#f0a30a;" parent="KYCBICbOke3TSxatJTsc-111" source="SlOrQcs6TzMa83nHez-D-7" target="KYCBICbOke3TSxatJTsc-112" edge="1">
          <mxGeometry relative="1" as="geometry" />
        </mxCell>
        <mxCell id="SlOrQcs6TzMa83nHez-D-7" value="等待信号量" style="whiteSpace=wrap;align=center;verticalAlign=middle;fontStyle=1;strokeWidth=2;fillColor=#FFFFCC;fontFamily=Times New Roman;" parent="KYCBICbOke3TSxatJTsc-111" vertex="1">
          <mxGeometry x="19.5" y="30" width="111" height="50" as="geometry" />
        </mxCell>
        <mxCell id="KYCBICbOke3TSxatJTsc-117" value="" style="swimlane;startSize=0;fillColor=none;dashed=1;strokeWidth=2;fontFamily=Times New Roman;" parent="1" vertex="1">
          <mxGeometry x="440" y="310" width="180" height="450" as="geometry">
            <mxRectangle x="440" y="310" width="50" height="40" as="alternateBounds" />
          </mxGeometry>
        </mxCell>
        <mxCell id="KYCBICbOke3TSxatJTsc-119" value="task_run=3" style="text;html=1;align=center;verticalAlign=middle;resizable=0;points=[];autosize=1;strokeColor=none;fillColor=none;" parent="KYCBICbOke3TSxatJTsc-117" vertex="1">
          <mxGeometry x="100" width="80" height="30" as="geometry" />
        </mxCell>
        <mxCell id="SlOrQcs6TzMa83nHez-D-10" style="edgeStyle=orthogonalEdgeStyle;shape=connector;curved=0;rounded=1;orthogonalLoop=1;jettySize=auto;html=1;exitX=0.5;exitY=1;exitDx=0;exitDy=0;entryX=0.5;entryY=0;entryDx=0;entryDy=0;strokeColor=#BD7000;strokeWidth=2;align=center;verticalAlign=middle;fontFamily=Helvetica;fontSize=11;fontColor=default;labelBackgroundColor=default;endArrow=classic;fillColor=#f0a30a;" parent="KYCBICbOke3TSxatJTsc-117" source="SlOrQcs6TzMa83nHez-D-5" target="SlOrQcs6TzMa83nHez-D-6" edge="1">
          <mxGeometry relative="1" as="geometry" />
        </mxCell>
        <mxCell id="FDbFjoVgWYvQYMH4IWsY-42" style="edgeStyle=orthogonalEdgeStyle;shape=connector;rounded=1;orthogonalLoop=1;jettySize=auto;html=1;exitX=0;exitY=0.5;exitDx=0;exitDy=0;entryX=0.5;entryY=0;entryDx=0;entryDy=0;strokeColor=#BD7000;strokeWidth=2;align=center;verticalAlign=middle;fontFamily=Helvetica;fontSize=11;fontColor=default;labelBackgroundColor=default;endArrow=classic;fillColor=#f0a30a;curved=0;" parent="KYCBICbOke3TSxatJTsc-117" source="SlOrQcs6TzMa83nHez-D-5" target="FDbFjoVgWYvQYMH4IWsY-41" edge="1">
          <mxGeometry relative="1" as="geometry" />
        </mxCell>
        <mxCell id="SlOrQcs6TzMa83nHez-D-5" value="时间更新&#xa;等待串口任务指令" style="whiteSpace=wrap;align=center;verticalAlign=middle;fontStyle=1;strokeWidth=2;fillColor=#FFFFCC;fontFamily=Times New Roman;" parent="KYCBICbOke3TSxatJTsc-117" vertex="1">
          <mxGeometry x="50" y="30" width="100" height="50" as="geometry" />
        </mxCell>
        <mxCell id="FDbFjoVgWYvQYMH4IWsY-32" style="edgeStyle=orthogonalEdgeStyle;shape=connector;rounded=1;orthogonalLoop=1;jettySize=auto;html=1;exitX=0.5;exitY=1;exitDx=0;exitDy=0;entryX=0.5;entryY=0;entryDx=0;entryDy=0;strokeColor=#BD7000;strokeWidth=2;align=center;verticalAlign=middle;fontFamily=Helvetica;fontSize=11;fontColor=default;labelBackgroundColor=default;endArrow=classic;fillColor=#f0a30a;curved=0;" parent="KYCBICbOke3TSxatJTsc-117" source="SlOrQcs6TzMa83nHez-D-6" target="FDbFjoVgWYvQYMH4IWsY-16" edge="1">
          <mxGeometry relative="1" as="geometry" />
        </mxCell>
        <mxCell id="FDbFjoVgWYvQYMH4IWsY-33" style="edgeStyle=orthogonalEdgeStyle;shape=connector;rounded=1;orthogonalLoop=1;jettySize=auto;html=1;exitX=0.5;exitY=1;exitDx=0;exitDy=0;entryX=0.5;entryY=0;entryDx=0;entryDy=0;strokeColor=#BD7000;strokeWidth=2;align=center;verticalAlign=middle;fontFamily=Helvetica;fontSize=11;fontColor=default;labelBackgroundColor=default;endArrow=classic;fillColor=#f0a30a;curved=0;" parent="KYCBICbOke3TSxatJTsc-117" source="SlOrQcs6TzMa83nHez-D-6" target="FDbFjoVgWYvQYMH4IWsY-31" edge="1">
          <mxGeometry relative="1" as="geometry" />
        </mxCell>
        <mxCell id="SlOrQcs6TzMa83nHez-D-6" value="switch指令集" style="whiteSpace=wrap;align=center;verticalAlign=middle;fontStyle=1;strokeWidth=2;fillColor=#FFFFCC;fontFamily=Times New Roman;" parent="KYCBICbOke3TSxatJTsc-117" vertex="1">
          <mxGeometry x="50" y="110" width="100" height="50" as="geometry" />
        </mxCell>
        <mxCell id="SlOrQcs6TzMa83nHez-D-8" value="一定间隔释放信号量" style="whiteSpace=wrap;align=center;verticalAlign=middle;fontStyle=1;strokeWidth=2;fillColor=#FFFFCC;fontFamily=Times New Roman;" parent="KYCBICbOke3TSxatJTsc-117" vertex="1">
          <mxGeometry x="40" y="380" width="120" height="50" as="geometry" />
        </mxCell>
        <mxCell id="FDbFjoVgWYvQYMH4IWsY-34" style="edgeStyle=orthogonalEdgeStyle;shape=connector;rounded=1;orthogonalLoop=1;jettySize=auto;html=1;exitX=0.5;exitY=1;exitDx=0;exitDy=0;entryX=0.5;entryY=0;entryDx=0;entryDy=0;strokeColor=#00FFFF;strokeWidth=2;align=center;verticalAlign=middle;fontFamily=Helvetica;fontSize=11;fontColor=default;labelBackgroundColor=default;endArrow=classic;fillColor=#f0a30a;curved=0;" parent="KYCBICbOke3TSxatJTsc-117" source="FDbFjoVgWYvQYMH4IWsY-16" target="FDbFjoVgWYvQYMH4IWsY-25" edge="1">
          <mxGeometry relative="1" as="geometry">
            <Array as="points">
              <mxPoint x="65" y="270" />
              <mxPoint x="100" y="270" />
            </Array>
          </mxGeometry>
        </mxCell>
        <mxCell id="FDbFjoVgWYvQYMH4IWsY-35" value="置位Event_2" style="edgeLabel;html=1;align=center;verticalAlign=middle;resizable=0;points=[];fontFamily=Helvetica;fontSize=11;fontColor=default;labelBackgroundColor=default;" parent="FDbFjoVgWYvQYMH4IWsY-34" vertex="1" connectable="0">
          <mxGeometry x="-0.2" y="1" relative="1" as="geometry">
            <mxPoint x="-13" y="10" as="offset" />
          </mxGeometry>
        </mxCell>
        <mxCell id="FDbFjoVgWYvQYMH4IWsY-16" value="控制事件更新" style="whiteSpace=wrap;align=center;verticalAlign=middle;fontStyle=1;strokeWidth=2;fillColor=#FFFFCC;fontFamily=Times New Roman;" parent="KYCBICbOke3TSxatJTsc-117" vertex="1">
          <mxGeometry x="40" y="200" width="50" height="50" as="geometry" />
        </mxCell>
        <mxCell id="FDbFjoVgWYvQYMH4IWsY-38" style="edgeStyle=orthogonalEdgeStyle;shape=connector;rounded=0;orthogonalLoop=1;jettySize=auto;html=1;exitX=0.5;exitY=1;exitDx=0;exitDy=0;entryX=0.5;entryY=0;entryDx=0;entryDy=0;strokeColor=#BD7000;strokeWidth=2;align=center;verticalAlign=middle;fontFamily=Helvetica;fontSize=11;fontColor=default;labelBackgroundColor=default;endArrow=classic;fillColor=#f0a30a;" parent="KYCBICbOke3TSxatJTsc-117" source="FDbFjoVgWYvQYMH4IWsY-25" target="SlOrQcs6TzMa83nHez-D-8" edge="1">
          <mxGeometry relative="1" as="geometry" />
        </mxCell>
        <mxCell id="FDbFjoVgWYvQYMH4IWsY-25" value="屏幕显示更新" style="whiteSpace=wrap;align=center;verticalAlign=middle;fontStyle=1;strokeWidth=2;fillColor=#FFFFCC;fontFamily=Times New Roman;" parent="KYCBICbOke3TSxatJTsc-117" vertex="1">
          <mxGeometry x="75" y="290" width="50" height="50" as="geometry" />
        </mxCell>
        <mxCell id="FDbFjoVgWYvQYMH4IWsY-31" value="控制时间更新" style="whiteSpace=wrap;align=center;verticalAlign=middle;fontStyle=1;strokeWidth=2;fillColor=#FFFFCC;fontFamily=Times New Roman;" parent="KYCBICbOke3TSxatJTsc-117" vertex="1">
          <mxGeometry x="110" y="200" width="50" height="50" as="geometry" />
        </mxCell>
        <mxCell id="FDbFjoVgWYvQYMH4IWsY-43" style="edgeStyle=orthogonalEdgeStyle;shape=connector;rounded=1;orthogonalLoop=1;jettySize=auto;html=1;exitX=0.5;exitY=1;exitDx=0;exitDy=0;entryX=0;entryY=0.5;entryDx=0;entryDy=0;strokeColor=#00FFFF;strokeWidth=2;align=center;verticalAlign=middle;fontFamily=Helvetica;fontSize=11;fontColor=default;labelBackgroundColor=default;endArrow=classic;fillColor=#f0a30a;curved=0;" parent="KYCBICbOke3TSxatJTsc-117" source="FDbFjoVgWYvQYMH4IWsY-41" target="FDbFjoVgWYvQYMH4IWsY-25" edge="1">
          <mxGeometry relative="1" as="geometry" />
        </mxCell>
        <mxCell id="FDbFjoVgWYvQYMH4IWsY-44" value="置位Event_2" style="edgeLabel;html=1;align=center;verticalAlign=middle;resizable=0;points=[];fontFamily=Helvetica;fontSize=11;fontColor=default;labelBackgroundColor=default;" parent="FDbFjoVgWYvQYMH4IWsY-43" vertex="1" connectable="0">
          <mxGeometry x="-0.3417" y="1" relative="1" as="geometry">
            <mxPoint x="9" y="94" as="offset" />
          </mxGeometry>
        </mxCell>
        <mxCell id="FDbFjoVgWYvQYMH4IWsY-41" value="时间更新" style="whiteSpace=wrap;align=center;verticalAlign=middle;fontStyle=1;strokeWidth=2;fillColor=#FFFFCC;fontFamily=Times New Roman;" parent="KYCBICbOke3TSxatJTsc-117" vertex="1">
          <mxGeometry x="10" y="100" width="20" height="70" as="geometry" />
        </mxCell>
        <mxCell id="KYCBICbOke3TSxatJTsc-120" value="" style="swimlane;startSize=0;fillColor=none;dashed=1;strokeWidth=2;fontFamily=Times New Roman;" parent="1" vertex="1">
          <mxGeometry x="660" y="310" width="140" height="420" as="geometry">
            <mxRectangle x="660" y="310" width="50" height="40" as="alternateBounds" />
          </mxGeometry>
        </mxCell>
        <mxCell id="KYCBICbOke3TSxatJTsc-121" value="串口接收vc02指令后更新控制变量值" style="whiteSpace=wrap;align=center;verticalAlign=middle;fontStyle=1;strokeWidth=2;fillColor=#FFFFCC;fontFamily=Times New Roman;" parent="KYCBICbOke3TSxatJTsc-120" vertex="1">
          <mxGeometry x="14.5" y="110" width="111" height="50" as="geometry" />
        </mxCell>
        <mxCell id="KYCBICbOke3TSxatJTsc-122" value="task_read=3" style="text;html=1;align=center;verticalAlign=middle;resizable=0;points=[];autosize=1;strokeColor=none;fillColor=none;" parent="KYCBICbOke3TSxatJTsc-120" vertex="1">
          <mxGeometry x="50" width="90" height="30" as="geometry" />
        </mxCell>
        <mxCell id="SlOrQcs6TzMa83nHez-D-4" value="读取时间信息" style="whiteSpace=wrap;align=center;verticalAlign=middle;fontStyle=1;strokeWidth=2;fillColor=#FFFFCC;fontFamily=Times New Roman;" parent="KYCBICbOke3TSxatJTsc-120" vertex="1">
          <mxGeometry x="75.5" y="290" width="50" height="50" as="geometry" />
        </mxCell>
        <mxCell id="FDbFjoVgWYvQYMH4IWsY-8" style="edgeStyle=orthogonalEdgeStyle;shape=connector;rounded=0;orthogonalLoop=1;jettySize=auto;html=1;exitX=0.5;exitY=1;exitDx=0;exitDy=0;entryX=0.5;entryY=0;entryDx=0;entryDy=0;strokeColor=#BD7000;strokeWidth=2;align=center;verticalAlign=middle;fontFamily=Helvetica;fontSize=11;fontColor=default;labelBackgroundColor=default;endArrow=classic;fillColor=#f0a30a;" parent="KYCBICbOke3TSxatJTsc-120" source="FDbFjoVgWYvQYMH4IWsY-7" target="KYCBICbOke3TSxatJTsc-121" edge="1">
          <mxGeometry relative="1" as="geometry" />
        </mxCell>
        <mxCell id="FDbFjoVgWYvQYMH4IWsY-7" value="等待信号量" style="whiteSpace=wrap;align=center;verticalAlign=middle;fontStyle=1;strokeWidth=2;fillColor=#FFFFCC;fontFamily=Times New Roman;" parent="KYCBICbOke3TSxatJTsc-120" vertex="1">
          <mxGeometry x="14.5" y="30" width="111" height="50" as="geometry" />
        </mxCell>
        <mxCell id="FDbFjoVgWYvQYMH4IWsY-21" style="edgeStyle=orthogonalEdgeStyle;shape=connector;rounded=1;orthogonalLoop=1;jettySize=auto;html=1;exitX=0.5;exitY=1;exitDx=0;exitDy=0;entryX=0.5;entryY=0;entryDx=0;entryDy=0;strokeColor=#BD7000;strokeWidth=2;align=center;verticalAlign=middle;fontFamily=Helvetica;fontSize=11;fontColor=default;labelBackgroundColor=default;endArrow=classic;fillColor=#f0a30a;curved=0;" parent="KYCBICbOke3TSxatJTsc-120" source="FDbFjoVgWYvQYMH4IWsY-19" target="FDbFjoVgWYvQYMH4IWsY-20" edge="1">
          <mxGeometry relative="1" as="geometry">
            <Array as="points">
              <mxPoint x="70" y="262" />
              <mxPoint x="40" y="262" />
            </Array>
          </mxGeometry>
        </mxCell>
        <mxCell id="FDbFjoVgWYvQYMH4IWsY-23" value="1" style="edgeLabel;html=1;align=center;verticalAlign=middle;resizable=0;points=[];fontFamily=Helvetica;fontSize=11;fontColor=default;labelBackgroundColor=default;" parent="FDbFjoVgWYvQYMH4IWsY-21" vertex="1" connectable="0">
          <mxGeometry x="0.1549" y="1" relative="1" as="geometry">
            <mxPoint x="2" y="-3" as="offset" />
          </mxGeometry>
        </mxCell>
        <mxCell id="FDbFjoVgWYvQYMH4IWsY-22" style="edgeStyle=orthogonalEdgeStyle;shape=connector;rounded=1;orthogonalLoop=1;jettySize=auto;html=1;exitX=0.5;exitY=1;exitDx=0;exitDy=0;strokeColor=#BD7000;strokeWidth=2;align=center;verticalAlign=middle;fontFamily=Helvetica;fontSize=11;fontColor=default;labelBackgroundColor=default;endArrow=classic;fillColor=#f0a30a;curved=0;" parent="KYCBICbOke3TSxatJTsc-120" edge="1">
          <mxGeometry relative="1" as="geometry">
            <mxPoint x="70" y="237" as="sourcePoint" />
            <mxPoint x="101" y="290" as="targetPoint" />
            <Array as="points">
              <mxPoint x="70" y="262" />
              <mxPoint x="101" y="262" />
            </Array>
          </mxGeometry>
        </mxCell>
        <mxCell id="FDbFjoVgWYvQYMH4IWsY-24" value="0" style="edgeLabel;html=1;align=center;verticalAlign=middle;resizable=0;points=[];fontFamily=Helvetica;fontSize=11;fontColor=default;labelBackgroundColor=default;" parent="FDbFjoVgWYvQYMH4IWsY-22" vertex="1" connectable="0">
          <mxGeometry x="0.287" y="2" relative="1" as="geometry">
            <mxPoint x="-9" as="offset" />
          </mxGeometry>
        </mxCell>
        <mxCell id="FDbFjoVgWYvQYMH4IWsY-19" value="停留等待事件组Event_02" style="whiteSpace=wrap;align=center;verticalAlign=middle;fontStyle=1;strokeWidth=2;fillColor=#FFFFCC;fontFamily=Times New Roman;" parent="KYCBICbOke3TSxatJTsc-120" vertex="1">
          <mxGeometry x="14.5" y="185" width="111" height="50" as="geometry" />
        </mxCell>
        <mxCell id="FDbFjoVgWYvQYMH4IWsY-20" value="更新时钟芯片时间" style="whiteSpace=wrap;align=center;verticalAlign=middle;fontStyle=1;strokeWidth=2;fillColor=#FFFFCC;fontFamily=Times New Roman;" parent="KYCBICbOke3TSxatJTsc-120" vertex="1">
          <mxGeometry x="14.5" y="290" width="50" height="50" as="geometry" />
        </mxCell>
        <mxCell id="KYCBICbOke3TSxatJTsc-123" style="edgeStyle=elbowEdgeStyle;shape=connector;rounded=1;orthogonalLoop=1;jettySize=auto;html=1;exitX=0.5;exitY=1;exitDx=0;exitDy=0;entryX=0.5;entryY=0;entryDx=0;entryDy=0;strokeColor=#BD7000;strokeWidth=2;align=center;verticalAlign=middle;fontFamily=Helvetica;fontSize=11;fontColor=default;labelBackgroundColor=default;endArrow=classic;fillColor=#f0a30a;elbow=vertical;curved=0;" parent="1" source="KYCBICbOke3TSxatJTsc-99" target="KYCBICbOke3TSxatJTsc-105" edge="1">
          <mxGeometry relative="1" as="geometry" />
        </mxCell>
        <mxCell id="SlOrQcs6TzMa83nHez-D-9" style="edgeStyle=orthogonalEdgeStyle;shape=connector;rounded=1;orthogonalLoop=1;jettySize=auto;html=1;exitX=0;exitY=0.5;exitDx=0;exitDy=0;entryX=1;entryY=0.25;entryDx=0;entryDy=0;strokeColor=#FF33FF;strokeWidth=2;align=center;verticalAlign=middle;fontFamily=Helvetica;fontSize=11;fontColor=default;labelBackgroundColor=default;endArrow=classic;fillColor=#f0a30a;curved=0;" parent="1" source="SlOrQcs6TzMa83nHez-D-8" target="SlOrQcs6TzMa83nHez-D-7" edge="1">
          <mxGeometry relative="1" as="geometry">
            <Array as="points">
              <mxPoint x="420" y="715" />
              <mxPoint x="420" y="352" />
            </Array>
          </mxGeometry>
        </mxCell>
        <mxCell id="FDbFjoVgWYvQYMH4IWsY-15" value="Sem_1" style="edgeLabel;html=1;align=center;verticalAlign=middle;resizable=0;points=[];fontFamily=Helvetica;fontSize=11;fontColor=default;labelBackgroundColor=default;textDirection=vertical-rl;" parent="SlOrQcs6TzMa83nHez-D-9" vertex="1" connectable="0">
          <mxGeometry x="-0.5557" y="-1" relative="1" as="geometry">
            <mxPoint x="-2" y="-58" as="offset" />
          </mxGeometry>
        </mxCell>
        <mxCell id="FDbFjoVgWYvQYMH4IWsY-13" style="edgeStyle=orthogonalEdgeStyle;shape=connector;rounded=1;orthogonalLoop=1;jettySize=auto;html=1;exitX=1;exitY=0.5;exitDx=0;exitDy=0;entryX=0;entryY=0.5;entryDx=0;entryDy=0;strokeColor=#FF33FF;strokeWidth=2;align=center;verticalAlign=middle;fontFamily=Helvetica;fontSize=11;fontColor=default;labelBackgroundColor=default;endArrow=classic;fillColor=#f0a30a;curved=0;" parent="1" source="SlOrQcs6TzMa83nHez-D-8" target="FDbFjoVgWYvQYMH4IWsY-7" edge="1">
          <mxGeometry relative="1" as="geometry">
            <Array as="points">
              <mxPoint x="640" y="715" />
              <mxPoint x="640" y="365" />
            </Array>
          </mxGeometry>
        </mxCell>
        <mxCell id="FDbFjoVgWYvQYMH4IWsY-14" value="Sem_2" style="edgeLabel;html=1;align=center;verticalAlign=middle;resizable=0;points=[];fontFamily=Helvetica;fontSize=11;fontColor=default;labelBackgroundColor=default;textDirection=vertical-rl;" parent="FDbFjoVgWYvQYMH4IWsY-13" vertex="1" connectable="0">
          <mxGeometry x="-0.2936" relative="1" as="geometry">
            <mxPoint y="-91" as="offset" />
          </mxGeometry>
        </mxCell>
        <mxCell id="FDbFjoVgWYvQYMH4IWsY-27" style="edgeStyle=orthogonalEdgeStyle;shape=connector;rounded=1;orthogonalLoop=1;jettySize=auto;html=1;exitX=0.5;exitY=1;exitDx=0;exitDy=0;entryX=0;entryY=0.5;entryDx=0;entryDy=0;strokeColor=#00FFFF;strokeWidth=2;align=center;verticalAlign=middle;fontFamily=Helvetica;fontSize=11;fontColor=default;labelBackgroundColor=default;endArrow=classic;fillColor=#f0a30a;curved=0;" parent="1" source="FDbFjoVgWYvQYMH4IWsY-31" target="FDbFjoVgWYvQYMH4IWsY-20" edge="1">
          <mxGeometry relative="1" as="geometry">
            <mxPoint x="575" y="645" as="sourcePoint" />
            <Array as="points">
              <mxPoint x="575" y="625" />
            </Array>
          </mxGeometry>
        </mxCell>
        <mxCell id="FDbFjoVgWYvQYMH4IWsY-28" value="置位Event_1" style="edgeLabel;html=1;align=center;verticalAlign=middle;resizable=0;points=[];fontFamily=Helvetica;fontSize=11;fontColor=default;labelBackgroundColor=default;" parent="FDbFjoVgWYvQYMH4IWsY-27" vertex="1" connectable="0">
          <mxGeometry x="-0.195" relative="1" as="geometry">
            <mxPoint x="34" y="-15" as="offset" />
          </mxGeometry>
        </mxCell>
        <mxCell id="FDbFjoVgWYvQYMH4IWsY-46" value="" style="endArrow=classic;html=1;rounded=0;strokeColor=#BD7000;strokeWidth=2;align=center;verticalAlign=middle;fontFamily=Helvetica;fontSize=11;fontColor=default;labelBackgroundColor=default;fillColor=#f0a30a;" parent="1" edge="1">
          <mxGeometry width="50" height="50" relative="1" as="geometry">
            <mxPoint x="580" y="80.09" as="sourcePoint" />
            <mxPoint x="650" y="80" as="targetPoint" />
          </mxGeometry>
        </mxCell>
        <mxCell id="FDbFjoVgWYvQYMH4IWsY-47" value="" style="endArrow=classic;html=1;rounded=0;strokeColor=#FF00FF;strokeWidth=2;align=center;verticalAlign=middle;fontFamily=Helvetica;fontSize=11;fontColor=default;labelBackgroundColor=default;fillColor=#f0a30a;" parent="1" edge="1">
          <mxGeometry width="50" height="50" relative="1" as="geometry">
            <mxPoint x="580" y="120.09" as="sourcePoint" />
            <mxPoint x="650" y="120" as="targetPoint" />
          </mxGeometry>
        </mxCell>
        <mxCell id="FDbFjoVgWYvQYMH4IWsY-48" value="" style="endArrow=classic;html=1;rounded=0;strokeColor=#00FFFF;strokeWidth=2;align=center;verticalAlign=middle;fontFamily=Helvetica;fontSize=11;fontColor=default;labelBackgroundColor=default;fillColor=#f0a30a;" parent="1" edge="1">
          <mxGeometry width="50" height="50" relative="1" as="geometry">
            <mxPoint x="580" y="160.09" as="sourcePoint" />
            <mxPoint x="650" y="160" as="targetPoint" />
          </mxGeometry>
        </mxCell>
        <mxCell id="FDbFjoVgWYvQYMH4IWsY-49" value="程序流" style="text;strokeColor=none;align=center;fillColor=none;html=1;verticalAlign=middle;whiteSpace=wrap;rounded=0;fontFamily=Helvetica;fontSize=11;fontColor=default;labelBackgroundColor=default;fontStyle=1" parent="1" vertex="1">
          <mxGeometry x="660" y="66" width="60" height="30" as="geometry" />
        </mxCell>
        <mxCell id="FDbFjoVgWYvQYMH4IWsY-50" value="信号量流" style="text;strokeColor=none;align=center;fillColor=none;html=1;verticalAlign=middle;whiteSpace=wrap;rounded=0;fontFamily=Helvetica;fontSize=11;fontColor=default;labelBackgroundColor=default;fontStyle=1" parent="1" vertex="1">
          <mxGeometry x="660" y="105" width="60" height="30" as="geometry" />
        </mxCell>
        <mxCell id="FDbFjoVgWYvQYMH4IWsY-51" value="事件组流" style="text;strokeColor=none;align=center;fillColor=none;html=1;verticalAlign=middle;whiteSpace=wrap;rounded=0;fontFamily=Helvetica;fontSize=11;fontColor=default;labelBackgroundColor=default;fontStyle=1" parent="1" vertex="1">
          <mxGeometry x="660" y="145" width="60" height="30" as="geometry" />
        </mxCell>
        <mxCell id="ffH4pfn04Z22Nr6gKTYO-2" value="&amp;nbsp;" style="text;strokeColor=none;align=center;fillColor=none;html=1;verticalAlign=middle;whiteSpace=wrap;rounded=0;fontFamily=Helvetica;fontSize=11;fontColor=default;labelBackgroundColor=default;fontStyle=1" vertex="1" parent="1">
          <mxGeometry x="880" y="105" width="60" height="30" as="geometry" />
        </mxCell>
        <mxCell id="ffH4pfn04Z22Nr6gKTYO-3" value="&amp;nbsp;" style="text;strokeColor=none;align=center;fillColor=none;html=1;verticalAlign=middle;whiteSpace=wrap;rounded=0;fontFamily=Helvetica;fontSize=11;fontColor=default;labelBackgroundColor=default;fontStyle=1" vertex="1" parent="1">
          <mxGeometry x="-110" y="135" width="60" height="30" as="geometry" />
        </mxCell>
      </root>
    </mxGraphModel>
  </diagram>
</mxfile>
